<svg width="25" height="25" viewBox="0 0 25 25" fill="none" xmlns="http://www.w3.org/2000/svg">
<path d="M7.99992 1.33331C6.68138 1.33331 5.39245 1.72431 4.29612 2.45685C3.19979 3.18939 2.34531 4.23058 1.84072 5.44876C1.33614 6.66693 1.20412 8.00738 1.46135 9.30058C1.71859 10.5938 2.35353 11.7817 3.28588 12.714C4.21823 13.6464 5.40611 14.2813 6.69932 14.5385C7.99253 14.7958 9.33297 14.6638 10.5511 14.1592C11.7693 13.6546 12.8105 12.8001 13.5431 11.7038C14.2756 10.6075 14.6666 9.31852 14.6666 7.99998C14.6666 7.1245 14.4941 6.25759 14.1591 5.44876C13.8241 4.63992 13.333 3.90499 12.714 3.28593C12.0949 2.66688 11.36 2.17581 10.5511 1.84078C9.74231 1.50575 8.8754 1.33331 7.99992 1.33331ZM10.6666 8.66665H7.99992C7.82311 8.66665 7.65354 8.59641 7.52852 8.47138C7.40349 8.34636 7.33325 8.17679 7.33325 7.99998V5.33331C7.33325 5.1565 7.40349 4.98693 7.52852 4.86191C7.65354 4.73688 7.82311 4.66665 7.99992 4.66665C8.17673 4.66665 8.3463 4.73688 8.47133 4.86191C8.59635 4.98693 8.66659 5.1565 8.66659 5.33331V7.33331H10.6666C10.8434 7.33331 11.013 7.40355 11.138 7.52858C11.263 7.6536 11.3333 7.82317 11.3333 7.99998C11.3333 8.17679 11.263 8.34636 11.138 8.47138C11.013 8.59641 10.8434 8.66665 10.6666 8.66665Z" fill="#42807B"/>
</svg>
