<svg width="20" height="21" viewBox="0 0 20 21" fill="none" xmlns="http://www.w3.org/2000/svg">
<path d="M10 0.980469C8.02219 0.980469 6.08879 1.56696 4.4443 2.66577C2.79981 3.76459 1.51809 5.32637 0.761209 7.15363C0.00433284 8.9809 -0.193701 10.9916 0.192152 12.9314C0.578004 14.8712 1.53041 16.653 2.92894 18.0515C4.32746 19.4501 6.10929 20.4025 8.0491 20.7883C9.98891 21.1742 11.9996 20.9761 13.8268 20.2193C15.6541 19.4624 17.2159 18.1807 18.3147 16.5362C19.4135 14.8917 20 12.9583 20 10.9805C20 9.66725 19.7413 8.36689 19.2388 7.15363C18.7363 5.94038 17.9997 4.83799 17.0711 3.9094C16.1425 2.98082 15.0401 2.24422 13.8268 1.74167C12.6136 1.23913 11.3132 0.980469 10 0.980469ZM14.3 8.59047L9.73 14.5905C9.63685 14.7115 9.51721 14.8096 9.38027 14.8772C9.24333 14.9448 9.09272 14.9801 8.94 14.9805C8.78811 14.9813 8.63803 14.9475 8.50115 14.8816C8.36426 14.8158 8.24418 14.7196 8.15 14.6005L5.71 11.4905C5.62924 11.3867 5.5697 11.2681 5.53479 11.1413C5.49988 11.0146 5.49027 10.8822 5.50652 10.7517C5.52277 10.6213 5.56456 10.4953 5.6295 10.381C5.69444 10.2666 5.78126 10.1662 5.885 10.0855C6.09453 9.92236 6.36026 9.84916 6.62375 9.88198C6.75421 9.89823 6.8802 9.94002 6.99452 10.005C7.10884 10.0699 7.20924 10.1567 7.29 10.2605L8.92 12.3405L12.7 7.34047C12.7801 7.23541 12.8801 7.14716 12.9943 7.08076C13.1086 7.01435 13.2347 6.97109 13.3657 6.95345C13.4966 6.93581 13.6297 6.94412 13.7574 6.97793C13.8851 7.01173 14.0049 7.07036 14.11 7.15047C14.2151 7.23058 14.3033 7.33059 14.3697 7.4448C14.4361 7.55901 14.4794 7.68519 14.497 7.81612C14.5147 7.94705 14.5063 8.08017 14.4725 8.20789C14.4387 8.3356 14.3801 8.45541 14.3 8.56047V8.59047Z" fill="#07C45D"/>
</svg>
