<svg width="569" height="427" viewBox="0 0 569 427" fill="none" xmlns="http://www.w3.org/2000/svg">
<path d="M289.977 165.448H351.542" stroke="#FFD200" stroke-width="5" stroke-miterlimit="10"/>
<path d="M289.977 211.223H351.542" stroke="#FFD200" stroke-width="5" stroke-miterlimit="10"/>
<path d="M289.977 258.947H351.542" stroke="#FFD200" stroke-width="5" stroke-miterlimit="10"/>
<path d="M289.977 304.721H351.542" stroke="#FFD200" stroke-width="5" stroke-miterlimit="10"/>
<path d="M289.977 343.208H351.542" stroke="#FFD200" stroke-width="5" stroke-miterlimit="10"/>
<path opacity="0.3" d="M213.375 81.8132C155.194 96.2031 109.205 141.593 95.7195 200.064C85.6909 243.547 94.4962 288.382 161.994 304.679C307.928 339.935 465.555 328.306 484.446 257.808C503.337 187.311 468.287 66.3558 384.871 58.8691C337.36 54.6133 266.007 68.8039 213.375 81.8132Z" fill="#E6E6E6"/>
<path opacity="0.45" d="M289.977 390.876C398.291 390.876 486.097 382.439 486.097 372.031C486.097 361.623 398.291 353.186 289.977 353.186C181.662 353.186 93.8564 361.623 93.8564 372.031C93.8564 382.439 181.662 390.876 289.977 390.876Z" fill="#E6E6E6"/>
<path d="M178.353 293.463V288.552C178.356 286.769 179.067 285.061 180.328 283.801C181.59 282.542 183.299 281.834 185.081 281.834H191.368C193.15 281.834 194.86 282.542 196.121 283.801C197.383 285.061 198.093 286.769 198.097 288.552V293.833" stroke="#24285B" stroke-width="2" stroke-miterlimit="10"/>
<path d="M212.962 291.527H165.01V322.783H212.962V291.527Z" fill="#FFD200"/>
<path opacity="0.08" d="M165.01 306.188C165.01 306.188 182.976 321.631 212.962 317.09V322.784H165.01V306.188Z" fill="black"/>
<path opacity="0.58" d="M410.718 356.872C410.718 356.872 399.011 353.727 396.422 342.852C396.422 342.852 414.516 339.123 415.114 357.826L410.718 356.872Z" fill="#F0486A"/>
<path opacity="0.73" d="M412.141 355.719C412.141 355.719 403.919 342.824 411.06 330.711C411.06 330.711 424.873 339.408 418.813 355.719H412.141Z" fill="#F0486A"/>
<path d="M414.246 355.72C414.246 355.72 418.514 342.056 431.544 339.408C431.544 339.408 434.019 348.261 423.165 355.72H414.246Z" fill="#F0486A"/>
<path d="M405.769 355.435L408.201 371.661H423.137L425.257 355.435H405.769Z" fill="#24285B"/>
<path opacity="0.58" d="M410.718 356.872C410.718 356.872 399.011 353.727 396.422 342.852C396.422 342.852 414.516 339.123 415.114 357.826L410.718 356.872Z" fill="#F0486A"/>
<path opacity="0.73" d="M412.141 355.719C412.141 355.719 403.919 342.824 411.06 330.711C411.06 330.711 424.873 339.408 418.813 355.719H412.141Z" fill="#F0486A"/>
<path d="M414.246 355.72C414.246 355.72 418.514 342.056 431.544 339.408C431.544 339.408 434.019 348.261 423.165 355.72H414.246Z" fill="#F0486A"/>
<path d="M405.769 355.435L408.201 371.661H423.137L425.257 355.435H405.769Z" fill="#24285B"/>
<path d="M289.977 45.5752V372.031" stroke="#FFD200" stroke-width="5" stroke-miterlimit="10"/>
<path d="M351.542 45.5752V372.031" stroke="#FFD200" stroke-width="5" stroke-miterlimit="10"/>
<path d="M236.562 175.397C236.562 175.397 218.98 184.037 219.336 199.594C219.691 215.151 220.431 257.011 191.369 265.722L195.011 275.173C195.011 275.173 256.69 276.867 236.562 175.397Z" fill="#F0486A"/>
<path opacity="0.46" d="M236.562 175.397C236.562 175.397 218.98 184.037 219.336 199.594C219.691 215.151 220.431 257.011 191.369 265.722L195.011 275.173C195.011 275.173 256.69 276.867 236.562 175.397Z" fill="white"/>
<path d="M241.427 159.456L244.954 170.06L236.562 175.397L233.546 157.008L241.427 159.456Z" fill="#F4A28C"/>
<path d="M230.658 146.76C231.099 145.752 231.783 144.869 232.65 144.192C233.518 143.515 234.54 143.065 235.624 142.883C236.709 142.7 237.822 142.792 238.862 143.148C239.903 143.504 240.838 144.115 241.583 144.924C245.154 148.738 249.464 154.802 244.585 158.104C237.131 163.157 230.36 153.72 230.36 153.72C229.771 151.421 229.875 149 230.658 146.76Z" fill="#F4A28C"/>
<path d="M236.135 153.265C236.135 153.265 234.215 151.67 233.29 153.933C232.365 156.197 235.808 157.307 236.818 156.154C237.828 155.001 236.135 153.265 236.135 153.265Z" fill="#F4A28C"/>
<path d="M234.101 160.381L228.411 154.503C227.824 153.892 227.368 153.168 227.07 152.376C226.771 151.583 226.637 150.738 226.675 149.891C226.73 145.874 227.855 141.943 229.933 138.505C233.816 132.897 238.98 130.776 240.26 135.658C241.54 140.54 241.811 134.747 244.94 137.323C248.07 139.9 247.43 141.423 244.94 142.789C242.451 144.155 237.301 146.12 236.846 150.219C236.391 154.318 240.289 157.634 234.101 160.381Z" fill="#24285B"/>
<path d="M244.954 170.06C244.954 170.06 287.074 152.738 298.426 185.29C309.777 217.841 292.337 265.793 292.337 265.793H244.954C244.954 265.793 202.99 202.569 236.561 175.397L244.954 170.06Z" fill="#F0486A"/>
<path d="M192.421 268.526C192.421 268.526 179.747 274.034 184.839 279.913C189.932 285.791 195.01 275.301 195.01 275.301L192.421 268.526Z" fill="#F4A28C"/>
<path d="M244.954 265.808L253.119 364.302H262.906L269.99 287.827L292.338 265.808H244.954Z" fill="#24285B"/>
<path d="M255.296 364.373L255.708 367.718C255.844 368.845 256.388 369.884 257.238 370.636C258.087 371.389 259.183 371.804 260.317 371.803H267.43C267.951 371.804 268.46 371.644 268.887 371.345C269.314 371.046 269.638 370.622 269.816 370.132C269.993 369.641 270.015 369.108 269.878 368.605C269.741 368.101 269.453 367.653 269.051 367.32C267.25 365.872 265.136 364.863 262.878 364.373H255.296Z" fill="#F0486A"/>
<path d="M268.085 186.926C262.779 172.28 281.57 161.136 291.812 172.864C295.798 177.638 298.782 183.166 300.589 189.118C311.371 221.855 313.918 240.728 349.139 241.454V251.93C349.139 251.93 301.926 259.16 279.778 213.756C275.41 205.026 271.507 196.07 268.085 186.926Z" fill="#F0486A"/>
<path opacity="0.46" d="M268.085 186.926C262.779 172.28 281.57 161.136 291.812 172.864C295.798 177.638 298.782 183.166 300.589 189.118C311.371 221.855 313.918 240.728 349.139 241.454V251.93C349.139 251.93 301.926 259.16 279.778 213.756C275.41 205.026 271.507 196.07 268.085 186.926Z" fill="white"/>
<path d="M349.139 244.002C349.139 244.002 358.072 241.981 360.021 247.802C361.97 253.624 349.139 251.987 349.139 251.987V244.002Z" fill="#F4A28C"/>
<path d="M292.338 265.793C292.338 265.793 319.934 261.965 328.654 277.18C337.374 292.395 315.098 333.871 315.098 333.871L305.14 330.712C305.14 330.712 322.41 291.499 297.8 286.588C294.97 286.073 292.064 286.15 289.265 286.816L262.878 292.68L267.145 266.761L292.338 265.793Z" fill="#24285B"/>
<path d="M308.157 331.637L307.559 333.786C307.349 334.541 307.339 335.338 307.528 336.099C307.718 336.86 308.101 337.558 308.64 338.127L309.337 338.867C309.76 339.314 310.27 339.671 310.834 339.916C311.399 340.16 312.008 340.288 312.623 340.291H318.541C318.92 340.288 319.291 340.173 319.605 339.96C319.919 339.747 320.163 339.445 320.307 339.093C320.45 338.742 320.485 338.355 320.409 337.983C320.333 337.611 320.148 337.27 319.878 337.003C318.482 335.682 316.864 334.617 315.098 333.857L308.157 331.637Z" fill="#F0486A"/>
<path d="M289.977 73.928H351.542" stroke="#FFD200" stroke-width="5" stroke-miterlimit="10"/>
<path d="M289.977 119.688H351.542" stroke="#FFD200" stroke-width="5" stroke-miterlimit="10"/>
<path d="M154.74 154.674C179.338 154.674 199.278 134.721 199.278 110.109C199.278 85.4967 179.338 65.5444 154.74 65.5444C130.142 65.5444 110.201 85.4967 110.201 110.109C110.201 134.721 130.142 154.674 154.74 154.674Z" fill="#24285B"/>
<path d="M181.07 132.882L207.315 139.942L187.628 119.475L181.07 132.882Z" fill="#24285B"/>
<path d="M157.129 87.0938C158.395 87.0938 158.779 87.5351 158.779 88.7876V91.4919C163.829 92.2036 166.745 94.7229 168.879 99.121C169.534 100.445 169.263 101.156 167.784 101.811L165.095 103.021C163.829 103.633 163.218 103.348 162.506 102.039C161.952 100.664 160.968 99.5056 159.702 98.7361C158.435 97.9666 156.954 97.6273 155.479 97.7688C150.813 97.7688 148.68 99.1922 148.68 102.281C148.68 104.316 150.543 105.583 152.463 105.967C153.769 106.246 155.089 106.445 156.418 106.565C158.906 106.685 161.364 107.165 163.715 107.988C164.896 108.372 165.996 108.97 166.959 109.753C167.92 110.781 168.666 111.99 169.155 113.31C169.643 114.629 169.864 116.033 169.804 117.439C169.804 123.432 165.792 127.502 158.708 128.541V131.388C158.708 132.64 158.324 133.082 157.058 133.082H154.042C152.776 133.082 152.335 132.64 152.335 131.388V128.541C146.845 127.83 143.16 125.026 141.354 120.001C140.913 118.791 141.354 117.98 142.62 117.482L145.308 116.486C146.731 116.002 147.286 116.329 147.883 117.695C149.092 120.77 151.567 122.321 155.308 122.321C160.358 122.321 162.876 120.727 162.876 117.482C162.92 116.731 162.711 115.986 162.283 115.367C161.855 114.748 161.233 114.29 160.515 114.066C158.763 113.459 156.933 113.109 155.081 113.027C152.561 112.886 150.079 112.348 147.727 111.433C146.566 111.023 145.487 110.411 144.54 109.625C143.555 108.654 142.784 107.487 142.274 106.201C141.765 104.914 141.529 103.536 141.581 102.153C141.581 96.2174 145.308 92.2605 152.335 91.3354V88.631C152.335 87.3785 152.776 86.9373 154.042 86.9373L157.129 87.0938Z" fill="white"/>
</svg>
