<svg width="640" height="481" viewBox="0 0 640 481" fill="none" xmlns="http://www.w3.org/2000/svg">
<path opacity="0.18" d="M87.4236 284.495C87.4236 282.074 50.3036 207.535 124.544 158.025C198.784 108.514 249.472 111.961 301.088 146C352.704 180.038 676.799 123.954 546.448 384.992L454.175 395.013L205.68 388.408L87.4236 284.495Z" fill="#E6E6E6"/>
<path opacity="0.58" d="M536.863 359.147C536.863 359.147 516.799 353.695 512.271 334.952C512.271 334.952 543.423 328.539 544.431 360.75L536.863 359.147Z" fill="#F0486A"/>
<path opacity="0.73" d="M539.328 357.11C539.328 357.11 525.184 334.904 537.456 314.029C537.456 314.029 561.216 329.02 550.816 357.11H539.328Z" fill="#F0486A"/>
<path d="M542.944 357.11C542.944 357.11 550.272 333.557 572.704 329.02C572.704 329.02 576.976 344.268 558.304 357.11H542.944Z" fill="#F0486A"/>
<path d="M528.353 356.645L532.545 384.576H558.241L561.905 356.645H528.353Z" fill="#24285B"/>
<path d="M465.168 384.576L484.896 317.572H389.072L375.168 372.246L340.448 374.106V384.576H465.168Z" fill="#C9C9C9"/>
<path d="M588.8 384.576H64.4316V405.451H588.8V384.576Z" fill="#E6E6E6"/>
<path opacity="0.4" d="M588.8 405.467H64.4316V424.162H588.8V405.467Z" fill="#A5A5A5"/>
<path d="M150.592 269.825C150.592 269.825 188.384 242.568 232.48 248.228C276.576 253.888 293.504 264.967 296.624 316.899C299.744 368.831 275.36 424.146 275.36 424.146L203.072 423.488L150.592 269.825Z" fill="#F0486A"/>
<path opacity="0.08" d="M177.888 255.764C177.888 255.764 214.432 274.891 218.176 324.162C221.92 373.432 228.544 408.786 281.36 408.529L275.36 424.146L203.072 423.488L150.592 269.825C150.592 269.825 167.248 259.307 177.888 255.764Z" fill="black"/>
<path d="M56.7523 423.488H203.056C203.056 423.488 206.432 340.628 180.352 293.041C154.272 245.454 -12.2557 250.393 56.7523 423.488Z" fill="#24285B"/>
<path d="M189.008 227.08L198 249.815L177.888 255.764L172.32 221.885L189.008 227.08Z" fill="#F4A28C"/>
<path d="M164.384 204.265C168.112 194.869 180.512 192.833 187.472 200.144C195.12 208.161 204.368 220.987 194.128 228.042C178.448 238.929 163.728 219.031 163.728 219.031C162.491 214.152 162.719 209.015 164.384 204.265Z" fill="#F4A28C"/>
<path d="M170.144 218.262C170.144 218.262 165.104 216.658 165.344 221.837C165.584 227.016 172.992 226.375 174.032 223.312C175.072 220.25 170.144 218.262 170.144 218.262Z" fill="#F4A28C"/>
<path d="M233.92 290.203C230.288 268.19 255.056 252.653 273.264 265.496C284.96 273.753 296.08 286.612 302.064 306.67C318.64 361.84 348.336 394.853 424.496 376.11L429.056 395.799C429.056 395.799 260.8 452.894 233.92 290.203Z" fill="#F4A28C"/>
<path d="M160.704 213.516C160.704 213.516 164.736 231.329 174.096 231.297C183.456 231.265 182.72 225.252 180.8 213.516C178.88 201.779 192.784 205.259 190.912 191.855C189.04 178.451 188.144 179.028 175.904 179.814C163.664 180.599 148.144 190.973 160.704 213.516Z" fill="#FFD200"/>
<path d="M430.064 373.577C430.064 373.577 439.136 368.334 447.088 370.37C455.04 372.406 456.065 383.854 448.512 387.574L433.392 395.013L430.064 373.577Z" fill="#F4A28C"/>
<path d="M547.392 81.1447H321.28V254.529H547.392V81.1447Z" fill="#24285B"/>
<path d="M442.96 97.8194L457.072 128.956L438.704 142.6L435.056 113.308L442.96 97.8194Z" fill="#F4A28C"/>
<path opacity="0.31" d="M435.2 114.141C435.2 114.141 446.736 112.346 448.208 108.93C448.208 108.93 457.904 126.455 437.008 128.17L435.2 114.141Z" fill="#CE8172"/>
<path d="M427.504 153.15C427.504 153.15 334.112 232.259 299.632 138.047L283.632 147.667C283.632 147.667 294.832 266.907 435.184 212.778L427.504 153.15Z" fill="#F0486A"/>
<path opacity="0.2" d="M427.504 153.15C427.504 153.15 334.112 232.259 299.632 138.047L283.632 147.667C283.632 147.667 294.832 266.907 435.184 212.778L427.504 153.15Z" fill="white"/>
<path d="M438.704 142.6C438.704 142.6 402.88 169.168 414.192 199.695C425.504 230.223 451.2 254.529 451.2 254.529H547.424C547.424 254.529 546.384 230.72 543.584 204.682C539.552 167.212 525.984 123.793 457.104 128.956L438.704 142.6Z" fill="#F0486A"/>
<path opacity="0.08" d="M491.808 153.15C491.808 153.15 479.008 166.089 484.304 182.491C489.6 198.893 507.296 251.082 467.744 246.144L499.632 250.008L532.944 246.144L547.616 211.383L521.728 174.763L491.808 153.15Z" fill="black"/>
<path d="M353.328 104.473V151.852L401.152 126.102L353.328 104.473Z" fill="white"/>
<path d="M411.985 254.529L397.185 196.761H479.809L487.809 243.899L521.729 245.502V254.529H411.985Z" fill="#FFD200"/>
<path d="M398.848 326.711L386.816 369.905H455.776L467.536 326.711H398.848Z" fill="white"/>
<path d="M444.56 232.227C448.43 232.227 451.568 229.083 451.568 225.204C451.568 221.326 448.43 218.182 444.56 218.182C440.689 218.182 437.552 221.326 437.552 225.204C437.552 229.083 440.689 232.227 444.56 232.227Z" fill="white"/>
<path d="M286.4 146.032C286.4 146.032 273.04 132.932 279.456 122.527C285.872 112.121 301.216 113.757 299.616 138.047L286.4 146.032Z" fill="#F4A28C"/>
<path d="M515.504 141.093C527.712 146.481 540.464 155.732 547.616 171.653L547.392 254.609H530.816L523.84 240.34C523.84 240.34 532.384 205.804 505.408 179.301C501.543 175.535 497.985 171.466 494.768 167.131C484.416 152.878 499.472 133.942 515.504 141.093Z" fill="#F0486A"/>
<path opacity="0.2" d="M515.504 141.093C527.712 146.481 540.464 155.732 547.616 171.653L547.392 254.609H530.816L523.84 240.34C523.84 240.34 532.384 205.804 505.408 179.301C501.543 175.535 497.985 171.466 494.768 167.131C484.416 152.878 499.472 133.942 515.504 141.093Z" fill="white"/>
<path d="M448.112 100.401C447.952 103.242 447.952 106.09 448.112 108.93C448.4 112.843 447.76 118.743 441.712 120.523C432.464 123.28 428.368 108.594 428.368 108.594C428.368 108.594 420.944 95.206 430.96 92.1917C440.08 89.4821 448.624 87.3176 448.112 100.401Z" fill="#F4A28C"/>
<path d="M422.88 87.4298C420.746 88.5135 419.083 90.345 418.208 92.5765C417.71 93.6751 417.542 94.8952 417.724 96.0879C417.905 97.2807 418.429 98.3948 419.232 99.2944C423.472 103.736 428.464 108.594 428.464 108.594C428.464 108.594 424.624 101.01 431.392 101.01C438.16 101.01 443.968 105.515 448.112 100.385C452.256 95.254 454.944 92.368 453.072 87.558C451.2 82.748 451.472 76.4309 444.128 79.1886C436.784 81.9464 439.632 76.2706 435.456 72.615C431.28 68.9594 424.528 69.5045 425.12 74.6352C425.6 79.0924 427.088 85.1049 422.88 87.4298Z" fill="#FFD200"/>
<path d="M429.12 109.139C429.12 109.139 428.096 104.65 424.176 105.259C420.256 105.868 422.688 114.189 429.12 109.139Z" fill="#F4A28C"/>
<path d="M446.736 109.187C446.736 109.187 444.88 104.986 448.336 103.126C451.792 101.267 454.912 109.411 446.736 109.187Z" fill="#F4A28C"/>
<path d="M252.096 345.358L306.24 319.16C306.24 319.16 299.392 259.692 252.096 255.764C204.8 251.836 235.2 328.539 252.096 345.358Z" fill="#F0486A"/>
<path opacity="0.2" d="M252.096 345.358L306.24 319.16C306.24 319.16 299.392 259.692 252.096 255.764C204.8 251.836 235.2 328.539 252.096 345.358Z" fill="white"/>
<path d="M417.488 338.367L412.672 356.565L439.936 347.474L417.488 338.367Z" fill="#A5A5A5"/>
<path d="M530.815 254.529C530.826 250.399 529.307 246.413 526.552 243.341C523.797 240.269 520.002 238.331 515.903 237.903C511.103 237.422 506.831 238.143 505.695 241.879C502.879 251.13 521.695 254.529 521.695 254.529H530.815Z" fill="#F4A28C"/>
<path opacity="0.31" d="M177.888 255.764L186.064 253.359L180.48 229.277C180.48 229.277 169.536 225.445 169.68 210.983C169.68 210.983 156.064 199.246 171.52 180.519C171.52 180.519 157.712 182.988 156.096 196.969C156.024 202.823 157.622 208.575 160.704 213.548C160.704 213.548 164.768 231.361 174.096 231.329L177.888 255.764Z" fill="#CE8172"/>
<path d="M429.569 372.799L415.572 376.322L421.583 400.301L435.58 396.778L429.569 372.799Z" fill="#24285B"/>
<path d="M425.552 395.767C430.615 395.767 434.72 391.654 434.72 386.58C434.72 381.506 430.615 377.393 425.552 377.393C420.488 377.393 416.384 381.506 416.384 386.58C416.384 391.654 420.488 395.767 425.552 395.767Z" fill="#FFD200"/>
<path opacity="0.31" d="M271.84 335.802C271.84 335.802 299.152 418.165 419.296 391.31L421.024 398.188C421.024 398.188 300.592 435.481 252.096 345.358L271.84 335.802Z" fill="#CE8172"/>
<path opacity="0.08" d="M271.841 335.802L252.097 345.422C252.097 345.422 210.976 287.959 233.569 260.766C233.601 260.702 242.513 312.65 271.841 335.802Z" fill="black"/>
<path d="M455.12 124.643C455.12 124.643 435.808 131.473 435.056 145.631C435.056 145.631 454.928 144.428 464.304 128.587C463.387 127.04 462.003 125.825 460.353 125.116C458.702 124.407 456.87 124.241 455.12 124.643Z" fill="white"/>
</svg>
