<svg width="15" height="15" viewBox="0 0 13 13" fill="none" xmlns="http://www.w3.org/2000/svg">
<circle cx="6.14769" cy="6.92613" r="6.04027" fill="#FFBB58"/>
<g clip-path="url(#clip0)">
<path d="M8.01396 9.94631C7.96029 9.94653 7.90736 9.93387 7.8596 9.9094L6.14819 9.01342L4.43678 9.9094C4.38121 9.93862 4.31855 9.95166 4.25593 9.94705C4.19331 9.94243 4.13325 9.92034 4.08256 9.88329C4.03187 9.84623 3.9926 9.7957 3.9692 9.73744C3.9458 9.67917 3.93922 9.61551 3.9502 9.55369L4.28577 7.66443L2.90322 6.32215C2.86009 6.2791 2.82949 6.22513 2.81471 6.16601C2.79993 6.10689 2.80152 6.04486 2.81933 5.98658C2.83878 5.92694 2.87456 5.87395 2.9226 5.83361C2.97065 5.79328 3.02903 5.76722 3.09114 5.75839L5.00389 5.47987L5.84617 3.75839C5.87365 3.70166 5.91656 3.65381 5.96997 3.62033C6.02338 3.58685 6.08515 3.56909 6.14819 3.56909C6.21123 3.56909 6.27299 3.58685 6.3264 3.62033C6.37982 3.65381 6.42272 3.70166 6.4502 3.75839L7.30255 5.47651L9.2153 5.75503C9.27741 5.76386 9.3358 5.78992 9.38384 5.83026C9.43189 5.87059 9.46766 5.92358 9.48711 5.98322C9.50492 6.0415 9.50651 6.10353 9.49173 6.16265C9.47695 6.22177 9.44636 6.27575 9.40322 6.31879L8.02067 7.66108L8.35624 9.55034C8.36822 9.61325 8.36195 9.67827 8.33816 9.73774C8.31438 9.7972 8.27408 9.84861 8.22201 9.88591C8.16125 9.92849 8.08808 9.94973 8.01396 9.94631Z" fill="white"/>
</g>
<defs>
<clipPath id="clip0">
<rect width="8.05369" height="8.05369" fill="white" transform="translate(2.12109 2.89929)"/>
</clipPath>
</defs>
</svg>
